# Blender 3.6.1
# www.blender.org
mtllib cylinder.mtl
o Cylinder
v 0.000000 -1.000000 -1.000000
v 0.000000 1.628156 -1.000000
v 0.866025 -1.000000 -0.500000
v 0.866025 1.000000 -0.500000
v 0.866025 -1.000000 0.500000
v 0.866025 1.000000 0.500000
v 0.000000 -1.000000 1.000000
v 0.000000 1.000000 1.000000
v -0.866025 -1.000000 0.500000
v -0.866025 1.000000 0.500000
v -0.866025 -1.000000 -0.500000
v -0.866025 1.628156 -0.500000
v -2.008387 -0.356037 2.041741
v -2.008387 0.807011 2.041741
v -2.008387 -0.356037 0.878693
v -2.008387 0.807011 0.878693
v -0.845339 -0.356037 2.041741
v -0.845339 0.807011 2.041741
v -0.845339 -0.356037 0.878693
v -0.845339 0.807011 0.878693
vn 0.5000 -0.0000 -0.8660
vn 1.0000 -0.0000 -0.0000
vn 0.5000 -0.0000 0.8660
vn -0.5000 -0.0000 0.8660
vn -0.0000 1.0000 -0.0000
vn -1.0000 -0.0000 -0.0000
vn -0.5000 -0.0000 -0.8660
vn -0.0000 -1.0000 -0.0000
vn 0.2936 0.8095 0.5085
vn -0.0000 -0.0000 -1.0000
vn -0.0000 -0.0000 1.0000
vt 1.000000 0.500000
vt 1.000000 1.000000
vt 0.833333 1.000000
vt 0.833333 0.500000
vt 0.666667 1.000000
vt 0.666667 0.500000
vt 0.500000 1.000000
vt 0.500000 0.500000
vt 0.333333 1.000000
vt 0.333333 0.500000
vt 0.457846 0.370000
vt 0.042154 0.130000
vt 0.250000 0.010000
vt 0.457846 0.130000
vt 0.166667 1.000000
vt 0.166667 0.500000
vt -0.000000 1.000000
vt -0.000000 0.500000
vt 0.484375 1.000770
vt 0.901140 0.760150
vt 0.901140 0.278912
vt 0.484375 0.038293
vt 0.067610 0.278912
vt 0.067610 0.760150
vt 0.250000 0.490000
vt 0.042154 0.370000
vt 0.375000 0.000000
vt 0.625000 0.000000
vt 0.625000 0.250000
vt 0.375000 0.250000
vt 0.625000 0.500000
vt 0.375000 0.500000
vt 0.625000 0.750000
vt 0.375000 0.750000
vt 0.625000 1.000000
vt 0.375000 1.000000
vt 0.125000 0.500000
vt 0.125000 0.750000
vt 0.875000 0.500000
vt 0.875000 0.750000
s 0
f 1/1/1 2/2/1 4/3/1 3/4/1
f 3/4/2 4/3/2 6/5/2 5/6/2
f 5/6/3 6/5/3 8/7/3 7/8/3
f 7/8/4 8/7/4 10/9/4 9/10/4
f 4/11/5 10/12/5 8/13/5 6/14/5
f 9/10/6 10/9/6 12/15/6 11/16/6
f 11/16/7 12/15/7 2/17/7 1/18/7
f 1/19/8 3/20/8 5/21/8 7/22/8 9/23/8 11/24/8
f 10/12/9 4/11/9 2/25/9 12/26/9
f 13/27/6 14/28/6 16/29/6 15/30/6
f 15/30/10 16/29/10 20/31/10 19/32/10
f 19/32/2 20/31/2 18/33/2 17/34/2
f 17/34/11 18/33/11 14/35/11 13/36/11
f 15/37/8 19/32/8 17/34/8 13/38/8
f 20/31/5 16/39/5 14/40/5 18/33/5
